<svg xmlns="http://www.w3.org/2000/svg" width="60" height="60" style="background: transparent;" viewBox="0 0 60.4364 30.2915"><defs><style>.a{fill:#f36f38;}</style></defs><title>EL-mark</title><path class="a" d="M45.0877,0a15.3665,15.3665,0,0,0-11.951,5.6414h0l-.4652.5647,4.9061,5.9546,1.413-1.715L39,10.4343h0a7.822,7.822,0,0,1,6.0879-2.8615,7.685,7.685,0,0,1,7.7758,7.5729,7.6851,7.6851,0,0,1-7.7758,7.5729,7.7812,7.7812,0,0,1-6.2646-3.0861l-.0006,0c-.0313-.0413-.0628-.0825-.0961-.1229l-3.602-4.3719,0,0L30.2185,9.1835l0,0L27.2905,5.63l-.0082-.0094A15.3916,15.3916,0,0,0,0,15.1458,15.2654,15.2654,0,0,0,15.3486,30.2915a15.57,15.57,0,0,0,6.9841-1.6559,15.4279,15.4279,0,0,0,5.2449-4.3379l.1868-.2267-4.9061-5.9546L21.71,19.51c-.0332.04-.0648.0815-.0961.1229l-.0006,0a7.7807,7.7807,0,0,1-6.2646,3.0861,7.685,7.685,0,0,1-7.7757-7.5729,7.685,7.685,0,0,1,7.7757-7.5729,7.8224,7.8224,0,0,1,6.0881,2.8616l0,0,.009.0115,3.8662,4.6924-.0007.001,4.9061,5.9545.0007-.0009,2.6394,3.2034.0374.0472.5576.6768a15.3892,15.3892,0,0,0,11.6351,5.2713A15.2655,15.2655,0,0,0,60.4364,15.1458,15.2655,15.2655,0,0,0,45.0877,0Z"/></svg>