<svg xmlns="http://www.w3.org/2000/svg" width="322.32" height="59.04" viewBox="0 0 322.32 59.04"><defs><style>.a{fill:#0185de;fill-rule:evenodd;}.b{fill:#f36f38;}</style></defs><title>EL-lowercase-color</title><path class="a" d="M7.2,33.48a7.3134,7.3134,0,0,0,2.52,5.04,7.8863,7.8863,0,0,0,5.22,1.8,8.5922,8.5922,0,0,0,4.53-1.11,12.558,12.558,0,0,0,3.21-2.79l5.16,3.9a14.6237,14.6237,0,0,1-5.64,4.44,16.616,16.616,0,0,1-6.54,1.32A17.2853,17.2853,0,0,1,9.54,45a14.6789,14.6789,0,0,1-4.98-3.06,14.52,14.52,0,0,1-3.33-4.77A15.2312,15.2312,0,0,1,0,30.96a15.2312,15.2312,0,0,1,1.23-6.21,14.52,14.52,0,0,1,3.33-4.77,14.6789,14.6789,0,0,1,4.98-3.06,17.2853,17.2853,0,0,1,6.12-1.08,13.99,13.99,0,0,1,5.49,1.05,11.7741,11.7741,0,0,1,4.26,3.03,13.9951,13.9951,0,0,1,2.76,4.89,20.7447,20.7447,0,0,1,.99,6.69v1.98Zm14.76-5.4a6.78,6.78,0,0,0-1.98-5.01,7.4266,7.4266,0,0,0-5.34-1.83A6.9956,6.9956,0,0,0,9.51,23.1,8.3006,8.3006,0,0,0,7.2,28.08ZM33.98,16.56h7.86l7.68,20.16h.12l7.74-20.16h7.38L53.42,45.36H45.74Zm42.8,16.92a7.3134,7.3134,0,0,0,2.52,5.04,7.8863,7.8863,0,0,0,5.22,1.8,8.5922,8.5922,0,0,0,4.53-1.11,12.558,12.558,0,0,0,3.21-2.79l5.16,3.9a14.6237,14.6237,0,0,1-5.64,4.44,16.616,16.616,0,0,1-6.54,1.32A17.2853,17.2853,0,0,1,79.12,45a14.6789,14.6789,0,0,1-4.98-3.06,14.52,14.52,0,0,1-3.33-4.77,15.2312,15.2312,0,0,1-1.23-6.21,15.2312,15.2312,0,0,1,1.23-6.21,14.52,14.52,0,0,1,3.33-4.77,14.6789,14.6789,0,0,1,4.98-3.06,17.2853,17.2853,0,0,1,6.12-1.08,13.99,13.99,0,0,1,5.49,1.05,11.7741,11.7741,0,0,1,4.26,3.03,13.9951,13.9951,0,0,1,2.76,4.89,20.7447,20.7447,0,0,1,.99,6.69v1.98Zm14.76-5.4a6.78,6.78,0,0,0-1.98-5.01,7.4266,7.4266,0,0,0-5.34-1.83,6.9956,6.9956,0,0,0-5.13,1.86,8.3006,8.3006,0,0,0-2.31,4.98Zm15.92-11.52h6.84v4.62h.12a10.1015,10.1015,0,0,1,3.12-3.75,9.2291,9.2291,0,0,1,5.7-1.59,11.28,11.28,0,0,1,4.89.96,9.2429,9.2429,0,0,1,3.27,2.52,9.5391,9.5391,0,0,1,1.8,3.6,16.5793,16.5793,0,0,1,.54,4.26V45.36h-7.2V30.78q0-1.2-.12-2.67a9.585,9.585,0,0,0-.63-2.76,5.1686,5.1686,0,0,0-1.59-2.16,4.5567,4.5567,0,0,0-2.94-.87,6.8751,6.8751,0,0,0-3.03.6,5.8227,5.8227,0,0,0-2.04,1.62,6.443,6.443,0,0,0-1.17,2.34,10.4438,10.4438,0,0,0-.36,2.76V45.36h-7.2Zm33.08,6.12V16.56h5.94V8.22h7.2v8.34h7.92v6.12h-7.92v12.6a6.2707,6.2707,0,0,0,.81,3.42q.81,1.26,3.21,1.26a11.6549,11.6549,0,0,0,2.1-.21,4.4,4.4,0,0,0,1.8-.69v6.06a9.2628,9.2628,0,0,1-2.79.75,23.3749,23.3749,0,0,1-2.91.21,14.7324,14.7324,0,0,1-4.71-.63,6.2143,6.2143,0,0,1-2.88-1.92,7.29,7.29,0,0,1-1.44-3.21,22.4888,22.4888,0,0,1-.39-4.44V22.68Zm27.26,8.28a15.2312,15.2312,0,0,1,1.23-6.21,14.52,14.52,0,0,1,3.33-4.77,14.6789,14.6789,0,0,1,4.98-3.06,17.88,17.88,0,0,1,12.24,0,14.6789,14.6789,0,0,1,4.98,3.06,14.52,14.52,0,0,1,3.33,4.77,15.2312,15.2312,0,0,1,1.23,6.21,15.2312,15.2312,0,0,1-1.23,6.21,14.52,14.52,0,0,1-3.33,4.77A14.6789,14.6789,0,0,1,189.58,45a17.88,17.88,0,0,1-12.24,0,14.6789,14.6789,0,0,1-4.98-3.06,14.52,14.52,0,0,1-3.33-4.77A15.2312,15.2312,0,0,1,167.8,30.96Zm7.2,0a9.3676,9.3676,0,0,0,.57,3.24,8.1309,8.1309,0,0,0,1.68,2.76,8.51,8.51,0,0,0,12.42,0,8.1309,8.1309,0,0,0,1.68-2.76,9.4934,9.4934,0,0,0,0-6.48,8.1309,8.1309,0,0,0-1.68-2.76,8.51,8.51,0,0,0-12.42,0,8.1309,8.1309,0,0,0-1.68,2.76A9.3676,9.3676,0,0,0,175,30.96ZM208.46,0h7.2V45.36h-7.2Zm82.78,16.56h6.84v4.32h.12a9.2605,9.2605,0,0,1,4.2-3.84,13.6109,13.6109,0,0,1,5.7-1.2,14.51,14.51,0,0,1,5.94,1.17,13.2993,13.2993,0,0,1,4.5,3.21,13.7244,13.7244,0,0,1,2.82,4.8,17.9587,17.9587,0,0,1,.96,5.94,17.0013,17.0013,0,0,1-1.02,5.94,14.7712,14.7712,0,0,1-2.85,4.8,13.137,13.137,0,0,1-4.41,3.21,13.4951,13.4951,0,0,1-5.64,1.17,13.9034,13.9034,0,0,1-3.6-.42,12.4058,12.4058,0,0,1-2.76-1.08A11.04,11.04,0,0,1,300,43.17a10.2485,10.2485,0,0,1-1.38-1.47h-.18V59.04h-7.2Zm23.88,14.4a9.3676,9.3676,0,0,0-.57-3.24,8.1309,8.1309,0,0,0-1.68-2.76,8.51,8.51,0,0,0-12.42,0,8.1309,8.1309,0,0,0-1.68,2.76,9.4934,9.4934,0,0,0,0,6.48,8.1309,8.1309,0,0,0,1.68,2.76,8.51,8.51,0,0,0,12.42,0,8.1309,8.1309,0,0,0,1.68-2.76A9.3676,9.3676,0,0,0,315.12,30.96Z"/><path class="b" d="M268.28,16.0685A15.3666,15.3666,0,0,0,256.3287,21.71h0l-.4652.5647,4.9061,5.9545,1.413-1.7149.009-.0115h0a7.8221,7.8221,0,0,1,6.088-2.8615,7.5755,7.5755,0,1,1,0,15.1458,7.7811,7.7811,0,0,1-6.2647-3.086l-.0006,0c-.0313-.0413-.0628-.0825-.096-.1228l-3.6021-4.3719,0,0-4.9061-5.9546,0,0-2.9278-3.5534-.0081-.0094a15.3917,15.3917,0,0,0-27.2824,9.5248A15.2655,15.2655,0,0,0,238.5406,46.36,15.3942,15.3942,0,0,0,250.77,40.3661l.1867-.2266L246.05,34.1849l-1.1484,1.3937c-.0332.04-.0648.0816-.0961.1229l-.0006,0a7.7809,7.7809,0,0,1-6.2646,3.086,7.5755,7.5755,0,1,1,0-15.1458,7.8223,7.8223,0,0,1,6.0881,2.8617l0,0,.0089.0114,3.8662,4.6925-.0007.0009,4.9061,5.9546.0008-.0009,2.6393,3.2034.0374.0471.5576.6769A15.3906,15.3906,0,0,0,268.28,46.36a15.1471,15.1471,0,1,0,0-30.2915Z"/></svg>