<?xml version="1.0" encoding="utf-8"?>
<!-- Generator: Adobe Illustrator 16.0.0, SVG Export Plug-In . SVG Version: 6.00 Build 0)  -->
<!DOCTYPE svg PUBLIC "-//W3C//DTD SVG 1.1//EN" "http://www.w3.org/Graphics/SVG/1.1/DTD/svg11.dtd">
<svg version="1.1" id="Layer_1" xmlns="http://www.w3.org/2000/svg" xmlns:xlink="http://www.w3.org/1999/xlink" x="0px" y="0px"
	 width="110px" height="110px" viewBox="0 0 110 110" enable-background="new 0 0 110 110" xml:space="preserve">
<path id="Fill-26" fill="#F36F38" d="M90.537,56.33H57.949V42.295h31.359c0.34,0,0.645,0.139,0.863,0.352l0.012,0.013
	c0.217,0.214,0.354,0.519,0.354,0.861V56.33z M85.82,86.511c0,0.339-0.137,0.643-0.354,0.86h-0.014
	c-0.221,0.22-0.529,0.363-0.863,0.363H57.949V62.188H85.82V86.511z M60.615,23.777c1.336-2.141,3.363-3.51,6.324-3.51
	c3.318,0,5.361,1.52,6.209,3.504l0.004-0.002c0.354,0.833,0.521,1.762,0.512,2.697c-0.018,0.952-0.223,1.915-0.615,2.814
	c-1.023,2.349-3.42,4.229-7.129,4.229h-7.877C58.293,29.751,59.061,26.262,60.615,23.777L60.615,23.777z M52.053,87.732H25.411
	c-0.334,0-0.641-0.142-0.866-0.361h-0.012c-0.213-0.218-0.351-0.521-0.351-0.86V62.188h27.871V87.732z M19.464,56.33V43.521
	c0-0.341,0.136-0.647,0.353-0.861l0.011-0.013c0.215-0.215,0.522-0.352,0.865-0.352h31.359V56.33H19.464z M36.848,23.77l0.007,0.002
	c0.845-1.984,2.889-3.504,6.208-3.504c2.955,0,4.989,1.369,6.326,3.51c1.552,2.485,2.319,5.974,2.57,9.732h-7.88
	c-3.708,0-6.104-1.879-7.129-4.229c-0.39-0.899-0.594-1.862-0.608-2.814C36.325,25.531,36.494,24.602,36.848,23.77L36.848,23.77z
	 M94.342,38.528l-0.004-0.007l-0.008-0.006c-1.299-1.285-3.078-2.077-5.021-2.077h-14.59c1.65-1.328,2.914-2.997,3.719-4.848
	c0.699-1.605,1.072-3.338,1.096-5.055c0.023-1.726-0.297-3.455-0.971-5.041l-0.008-0.009l0.008-0.002
	c-1.715-4.008-5.562-7.076-11.623-7.076c-5.299,0-8.93,2.455-11.323,6.281c-0.224,0.357-0.418,0.74-0.617,1.121
	c-0.199-0.381-0.395-0.764-0.615-1.121c-2.39-3.826-6.027-6.281-11.323-6.281c-6.06,0-9.908,3.068-11.622,7.076l0.006,0.002
	l-0.006,0.009c-0.674,1.586-0.999,3.315-0.971,5.041c0.024,1.717,0.393,3.45,1.093,5.055c0.808,1.852,2.069,3.521,3.722,4.848
	h-14.59c-1.949,0-3.728,0.794-5.024,2.077l-0.004,0.006l-0.005,0.007c-1.293,1.288-2.093,3.056-2.093,4.993v18.667h2.75h1.968
	v24.322c0,1.937,0.805,3.708,2.102,4.995l-0.011,0.012c1.289,1.274,3.072,2.075,5.037,2.075h26.641h5.897H84.59
	c1.965,0,3.748-0.801,5.035-2.08l-0.004-0.007c1.295-1.287,2.094-3.059,2.094-4.995V62.188h1.967h2.752V43.521
	C96.434,41.584,95.633,39.816,94.342,38.528L94.342,38.528z"/>
</svg>
